<svg width="103" height="40" viewBox="0 0 103 40" fill="none" xmlns="http://www.w3.org/2000/svg">
<path d="M14.625 0C8.61047 0 3.65625 2.54063 3.65625 5.625V18.3375C1.42594 19.3725 0 20.8537 0 22.5V39.375H18.2812V35.625H84.0938V39.375H102.375V22.5C102.375 20.8537 100.949 19.3725 98.7188 18.3375V5.625C98.7188 2.54063 93.7645 0 87.75 0H14.625ZM14.625 3.75H87.75C89.7792 3.75 91.4062 4.58437 91.4062 5.625V16.875H84.0938V15C84.0938 11.9156 79.1395 9.375 73.125 9.375H58.5C55.6957 9.375 53.1363 9.9375 51.1875 10.8375C49.188 9.90183 46.5818 9.3806 43.875 9.375H29.25C23.2355 9.375 18.2812 11.9156 18.2812 15V16.875H10.9688V5.625C10.9688 4.58437 12.5958 3.75 14.625 3.75ZM29.25 13.125H43.875C45.9042 13.125 47.5312 13.9594 47.5312 15V16.875H25.5938V15C25.5938 13.9594 27.2208 13.125 29.25 13.125ZM58.5 13.125H73.125C75.1542 13.125 76.7812 13.9594 76.7812 15V16.875H54.8438V15C54.8438 13.9594 56.4708 13.125 58.5 13.125ZM10.9688 20.625H91.4062C93.4355 20.625 95.0625 21.4594 95.0625 22.5V35.625H91.4062V31.875H10.9688V35.625H7.3125V22.5C7.3125 21.4594 8.93953 20.625 10.9688 20.625Z" fill="black"/>
</svg>
