<svg width="60" height="60" viewBox="0 0 60 60" fill="none" xmlns="http://www.w3.org/2000/svg">
<path d="M30 60C37.9565 60 45.5871 56.8393 51.2132 51.2132C56.8393 45.5871 60 37.9565 60 30C60 22.0435 56.8393 14.4129 51.2132 8.7868C45.5871 3.16071 37.9565 0 30 0C22.0435 0 14.4129 3.16071 8.7868 8.7868C3.16071 14.4129 0 22.0435 0 30C0 37.9565 3.16071 45.5871 8.7868 51.2132C14.4129 56.8393 22.0435 60 30 60ZM30 3.75C32.4637 3.75 35.2763 5.9625 37.5825 10.905C38.3963 12.6525 39.105 14.6625 39.6788 16.875H20.3213C20.895 14.6625 21.6038 12.6525 22.4212 10.905C24.72 5.9625 27.5325 3.75 30 3.75ZM19.02 9.31875C17.9127 11.7443 17.0545 14.276 16.4587 16.875H7.26C10.4259 11.4033 15.4546 7.25306 21.4275 5.1825C20.5238 6.42 19.7175 7.8225 19.02 9.31875ZM15.72 20.625C15.2347 23.7263 14.9939 26.861 15 30C15 33.2625 15.2512 36.42 15.7237 39.375H5.475C4.33135 36.3818 3.74667 33.2042 3.75 30C3.75 26.7 4.36125 23.535 5.475 20.625H15.7237H15.72ZM16.4587 43.125C17.1187 45.9113 17.985 48.4575 19.02 50.6813C19.7175 52.1775 20.5238 53.58 21.4275 54.8175C15.4546 52.7469 10.4259 48.5967 7.26 43.125H16.4625H16.4587ZM20.3213 43.125H39.6788C39.1622 45.1748 38.4592 47.1732 37.5788 49.095C35.28 54.0375 32.4675 56.25 30 56.25C27.5362 56.25 24.7238 54.0375 22.4175 49.095C21.5397 47.1729 20.8393 45.1746 20.325 43.125H20.3213ZM40.4775 39.375H19.5225C19.0014 36.2773 18.743 33.1412 18.75 30C18.75 26.6887 19.0238 23.5312 19.5225 20.625H40.4775C40.9762 23.5312 41.25 26.6887 41.25 30C41.25 33.3112 40.9762 36.4688 40.4775 39.375ZM43.5413 43.125H52.74C49.5741 48.5967 44.5454 52.7469 38.5725 54.8175C39.4762 53.58 40.2825 52.1775 40.98 50.6813C42.015 48.4575 42.8812 45.9113 43.5413 43.125ZM54.5288 39.375H44.2762C44.7487 36.42 45 33.2625 45 30C45 26.7375 44.7487 23.58 44.2762 20.625H54.525C55.6388 23.535 56.25 26.7 56.25 30C56.25 33.3 55.6388 36.465 54.525 39.375H54.5288ZM38.5725 5.1825C44.5456 7.25276 49.5744 11.403 52.74 16.875H43.5375C42.9417 14.2761 42.0835 11.7443 40.9762 9.31875C40.3085 7.86584 39.5023 6.48069 38.5687 5.1825H38.5725Z" fill="white"/>
</svg>
