<svg width="55" height="60" viewBox="0 0 55 60" fill="none" xmlns="http://www.w3.org/2000/svg">
<g clip-path="url(#clip0_109_5069)">
<path d="M28.9167 36C31.2477 36 33.5264 35.4135 35.4645 34.3147C37.4027 33.2159 38.9133 31.6541 39.8053 29.8268C40.6974 27.9996 40.9308 25.9889 40.476 24.0491C40.0212 22.1093 38.8988 20.3275 37.2505 18.9289C35.6022 17.5304 33.5022 16.578 31.216 16.1922C28.9298 15.8063 26.5601 16.0043 24.4065 16.7612C22.253 17.5181 20.4123 18.7998 19.1173 20.4443C17.8223 22.0888 17.131 24.0222 17.131 26C17.131 28.6522 18.3727 31.1957 20.583 33.0711C22.7932 34.9464 25.791 36 28.9167 36ZM46.5953 61C47.3768 61 48.1262 60.7366 48.6788 60.2678C49.2313 59.7989 49.5417 59.163 49.5417 58.5C49.5417 53.8587 47.3688 49.4075 43.5008 46.1256C39.6329 42.8438 34.3868 41 28.9167 41C23.4467 41 18.2006 42.8438 14.3327 46.1256C10.4647 49.4075 8.29175 53.8587 8.29175 58.5C8.29175 59.163 8.60218 59.7989 9.15474 60.2678C9.7073 60.7366 10.4567 61 11.2382 61H46.5953Z" fill="black"/>
</g>
<defs>
<clipPath id="clip0_109_5069">
<rect width="55" height="60" fill="white"/>
</clipPath>
</defs>
</svg>
